<svg xmlns="http://www.w3.org/2000/svg" viewBox="0 0 1024 1024">
  <defs>
    <linearGradient id="bg" x1="120" y1="80" x2="880" y2="940" gradientUnits="userSpaceOnUse">
      <stop offset="0" stop-color="#B9B2FF"/>
      <stop offset="1" stop-color="#746CE8"/>
    </linearGradient>
    <filter id="soft" x="-20%" y="-20%" width="140%" height="140%">
      <feDropShadow dx="0" dy="22" stdDeviation="22" flood-color="#5C54C8" flood-opacity=".25"/>
    </filter>
  </defs>
  <rect x="96" y="96" width="832" height="832" rx="210" fill="url(#bg)"/>
  <path d="M715 700c-80 110-242 154-386 78C188 703 134 526 209 385c51-97 144-153 242-161 26-2 39 31 19 49-54 48-83 122-68 199 26 136 157 225 293 199 26-5 39 10 20 29z" fill="#FFF0B7" filter="url(#soft)"/>
  <circle cx="535" cy="493" r="114" fill="#FFC29A"/>
  <path d="M486 470c22 32 62 40 91 19" fill="none" stroke="#9A5A3D" stroke-width="20" stroke-linecap="round"/>
  <path d="M465 560c24 20 57 18 79-5" fill="none" stroke="#9A5A3D" stroke-width="18" stroke-linecap="round"/>
  <path d="M606 562c25 17 58 11 76-14" fill="none" stroke="#9A5A3D" stroke-width="18" stroke-linecap="round"/>
  <path d="M470 381c29-30 78-26 102 8 18 25 17 60-2 84-36-10-72-41-100-92z" fill="#D58A5E"/>
  <path d="M568 611c82-22 218 21 276 117-58 84-201 126-329 78-74-28-121-80-132-136 48-25 108-39 185-59z" fill="#D8D4FF"/>
  <path d="M738 287l32 64 71 10-51 50 12 70-64-33-63 33 12-70-51-50 70-10z" fill="#FFF0B7"/>
</svg>
