<svg xmlns="http://www.w3.org/2000/svg" width="1217" height="229" viewBox="0 0 1217 229"><path fill="#003262" d="M1116.44,228.289651 C1128.06,228.289651 1138.99,219.689651 1160.84,173.899651 C1175.72,141.359651 1186.87,112.529651 1198.5,83.0096514 C1202.22,73.4796514 1204.08,71.6196514 1209.89,69.9896514 C1214.07,68.8296514 1215.7,67.1996514 1215.7,64.6396514 C1215.7,62.3196514 1214.31,60.2196514 1210.82,60.2196514 C1205.71,60.2196514 1199.66,60.9196514 1192.69,60.9196514 C1185.72,60.9196514 1180.14,60.2196514 1174.79,60.2196514 C1171.54,60.2196514 1169.91,62.0796514 1169.91,64.3996514 C1169.91,66.9596514 1171.54,68.5796514 1175.26,69.7496514 C1185.49,72.5396514 1186.42,76.9596514 1182.47,89.0396514 C1176.19,108.099651 1169.22,126.459651 1158.53,150.869651 C1149.46,128.319651 1141.79,108.099651 1134.12,85.3196514 C1131.33,76.4896514 1132.26,72.7696514 1143.18,69.7496514 C1147.36,68.5896514 1148.76,67.1896514 1148.76,64.6396514 C1148.76,62.0896514 1146.9,60.2196514 1143.65,60.2196514 C1136.68,60.2196514 1129.47,60.9196514 1119.94,60.9196514 C1109.71,60.9196514 1102.27,60.2196514 1095.07,60.2196514 C1091.58,60.2196514 1089.96,62.3096514 1089.96,64.6396514 C1089.96,67.4296514 1091.35,68.8196514 1095.54,69.9896514 C1100.89,71.3796514 1102.51,73.2396514 1105.77,81.6096514 C1118.55,113.459651 1129.94,141.579651 1144.82,179.699651 C1134.83,198.059651 1127.39,202.249651 1117.39,204.109651 C1109.25,205.499651 1103.91,210.619651 1103.91,217.129651 C1103.91,222.479651 1107.63,228.289651 1116.46,228.289651 M1043.92,69.5296514 C1058.8,69.5296514 1065.54,83.0096514 1065.54,88.3596514 C1065.54,90.2196514 1064.61,91.6096514 1062.52,92.0796514 C1049.97,95.3296514 1034.86,98.3596514 1019.05,101.139651 C1021.84,79.9896514 1032.3,69.5296514 1043.92,69.5296514 M1045.55,174.129651 C1065.77,174.129651 1079.72,164.139651 1088.09,154.139651 C1091.81,149.719651 1089.48,145.769651 1085.77,145.769651 C1084.84,145.769651 1083.91,146.229651 1082.98,146.699651 C1073.22,152.739651 1065.55,155.999651 1055.09,155.999651 C1032.08,155.999651 1018.36,135.779651 1018.36,112.769651 L1018.36,112.309651 C1041.14,109.059651 1063.45,104.639651 1086.47,99.2896514 C1089.49,98.5896514 1091.58,96.2696514 1090.89,92.7796514 C1087.17,76.0396514 1071.83,57.6796514 1045.33,57.6796514 C1018.83,57.6796514 994.42,82.3196514 994.42,117.879651 C994.42,151.349651 1016.04,174.129651 1045.56,174.129651 M937,172.269651 C944.67,172.269651 952.81,171.569651 962.1,171.569651 C971.39,171.569651 980,172.269651 987.67,172.269651 C991.16,172.269651 992.78,170.179651 992.78,167.849651 C992.78,165.289651 991.15,162.969651 987.2,162.499651 C976.74,161.339651 974.88,160.179651 974.88,155.289651 C974.42,132.739651 974.42,111.589651 974.42,90.6696514 C974.42,71.3796514 974.42,50.2196514 975.12,3.26965137 C975.12,0.249651367 973.26,-0.450348633 970.7,0.249651367 C958.61,3.26965137 946.99,5.12965137 937.46,6.05965137 C933.51,6.28965137 931.88,8.14965137 931.88,10.4796514 C931.88,13.0396514 933.51,14.8996514 937.92,15.5896514 C948.15,17.4496514 949.31,18.6096514 949.54,23.9596514 C950,47.4396514 950,69.5196514 950,90.6696514 C950,111.819651 950,132.739651 949.54,155.289651 C949.31,160.169651 947.91,161.099651 937.45,162.499651 C933.27,162.959651 931.87,165.289651 931.87,167.849651 C931.87,170.169651 933.5,172.269651 936.98,172.269651 M884.46,69.5296514 C899.34,69.5296514 906.08,83.0096514 906.08,88.3596514 C906.08,90.2196514 905.15,91.6096514 903.06,92.0796514 C890.51,95.3296514 875.4,98.3596514 859.59,101.139651 C862.38,79.9896514 872.84,69.5296514 884.46,69.5296514 M886.09,174.129651 C906.31,174.129651 920.26,164.139651 928.63,154.139651 C932.35,149.719651 930.02,145.769651 926.31,145.769651 C925.38,145.769651 924.45,146.229651 923.52,146.699651 C913.76,152.739651 906.09,155.999651 895.63,155.999651 C872.62,155.999651 858.9,135.779651 858.9,112.769651 L858.9,112.309651 C881.68,109.059651 903.99,104.639651 927.01,99.2896514 C930.03,98.5896514 932.12,96.2696514 931.43,92.7796514 C927.71,76.0396514 912.37,57.6796514 885.87,57.6796514 C859.37,57.6796514 834.96,82.3196514 834.96,117.879651 C834.96,151.349651 856.58,174.129651 886.1,174.129651 M718.27,172.269651 C725.94,172.269651 733.61,171.569651 742.91,171.569651 C752.21,171.569651 760.11,172.269651 767.78,172.269651 C771.27,172.269651 772.89,170.179651 772.89,167.849651 C772.89,165.289651 771.5,163.429651 767.31,162.499651 C756.85,160.869651 755.69,160.179651 755.69,155.289651 C755.46,147.849651 755.46,140.409651 755.46,133.209651 C760.57,129.959651 765.69,126.469651 770.57,122.979651 C780.33,137.619651 790.33,152.729651 800.09,166.679651 C803.11,171.099651 804.74,172.029651 809.62,172.029651 C816.59,172.029651 825.19,171.799651 835.19,172.029651 C838.68,172.029651 840.54,169.939651 840.54,167.379651 C840.54,165.059651 839.61,162.959651 834.73,162.499651 C828.22,161.799651 824.74,158.549651 819.16,151.339651 C809.4,138.089651 799.17,122.979651 789.64,108.339651 C789.64,108.109651 789.87,108.109651 790.1,107.879651 C808,92.3096514 819.85,80.4496514 828.69,68.8296514 C829.85,67.1996514 830.55,65.8096514 830.55,64.4096514 C830.55,61.6196514 828.69,59.7596514 824.97,59.9896514 C814.04,60.9196514 804.05,60.9196514 791.73,60.2196514 C786.85,59.9896514 785.45,62.3096514 785.45,64.6396514 C785.45,66.7296514 787.08,69.0596514 790.33,69.7496514 L794.98,70.9096514 C802.65,72.7696514 802.65,79.0496514 793.12,89.0396514 C782.89,99.9596514 769.64,110.429651 755.23,119.489651 L755.23,90.6696514 C755.23,71.3796514 755.23,50.2196514 755.93,3.26965137 C755.93,0.249651367 754.07,-0.450348633 751.51,0.249651367 C739.42,3.26965137 727.8,5.12965137 718.27,6.05965137 C714.32,6.28965137 712.69,8.14965137 712.69,10.4796514 C712.69,13.0396514 714.32,14.8996514 718.73,15.5896514 C728.96,17.4496514 730.12,18.6096514 730.35,23.9596514 C730.81,47.4396514 730.81,69.5196514 730.81,90.6696514 C730.81,111.819651 730.81,132.739651 730.35,155.289651 C730.12,160.169651 729.19,160.869651 718.73,162.499651 C714.55,163.429651 713.15,165.289651 713.15,167.849651 C713.15,170.169651 714.78,172.269651 718.26,172.269651 M632.03,172.269651 C639.47,172.269651 647.37,171.569651 656.44,171.569651 C665.51,171.569651 675.97,172.269651 683.4,172.269651 C686.65,172.269651 688.28,170.179651 688.28,167.849651 C688.28,165.289651 686.89,163.199651 682.24,162.499651 C670.39,161.109651 669.22,159.939651 668.99,155.059651 C668.53,142.279651 668.53,130.889651 668.53,116.009651 L668.53,96.4796514 C680.62,80.4396514 686.2,77.1896514 692.24,77.1896514 C699.45,77.1896514 705.49,86.2596514 708.51,86.2596514 C710.14,86.2596514 711.07,85.7996514 712.23,83.4696514 C714.55,78.8196514 716.88,74.1696514 719.2,69.2896514 C720.59,66.2696514 719.9,64.6396514 717.11,62.7796514 C711.53,59.0596514 705.72,56.4996514 699.91,56.4996514 C689.68,56.4996514 680.38,65.0996514 668.76,84.1596514 C668.76,76.4896514 668.99,68.1196514 669.22,58.8196514 C669.22,55.7996514 667.36,55.0996514 664.8,55.7996514 C652.71,59.0496514 641.32,60.9096514 631.56,61.6096514 C627.61,62.0696514 626.21,63.6996514 626.21,66.2596514 C626.21,68.8196514 627.6,70.6796514 632.02,71.3696514 C642.25,73.2296514 643.41,74.3896514 643.64,79.5096514 C644.1,91.1296514 644.1,103.449651 644.1,115.999651 C644.1,130.879651 644.1,142.269651 643.64,155.049651 C643.41,159.929651 642.71,161.089651 632.48,162.489651 C628.3,163.419651 626.9,165.279651 626.9,167.839651 C626.9,170.159651 628.53,172.259651 632.01,172.259651 M575.55,69.5296514 C590.43,69.5296514 597.17,83.0096514 597.17,88.3596514 C597.17,90.2196514 596.24,91.6096514 594.15,92.0796514 C581.6,95.3296514 566.49,98.3596514 550.68,101.139651 C553.47,79.9896514 563.93,69.5296514 575.55,69.5296514 M577.17,174.129651 C597.39,174.129651 611.34,164.139651 619.71,154.139651 C623.43,149.719651 621.1,145.769651 617.39,145.769651 C616.46,145.769651 615.53,146.229651 614.6,146.699651 C604.84,152.739651 597.17,155.999651 586.71,155.999651 C563.7,155.999651 549.98,135.779651 549.98,112.769651 L549.98,112.309651 C572.76,109.059651 595.07,104.639651 618.09,99.2896514 C621.11,98.5896514 623.2,96.2696514 622.51,92.7796514 C618.79,76.0396514 603.45,57.6796514 576.95,57.6796514 C550.45,57.6796514 526.04,82.3196514 526.04,117.879651 C526.04,151.349651 547.66,174.129651 577.18,174.129651 M435.38,159.479651 C428.41,157.849651 426.08,155.529651 425.85,147.159651 C425.39,129.489651 425.39,115.779651 425.39,90.6796514 L425.39,90.2196514 C464.91,89.2896514 485.59,98.1196514 485.59,126.949651 C485.59,143.919651 473.5,160.889651 449.1,160.889651 C442.82,160.889651 438.87,160.429651 435.39,159.499651 M425.85,30.0096514 C425.85,25.3596514 427.01,23.4996514 430.5,22.1096514 C433.29,21.1796514 437.47,20.7196514 443.98,20.7196514 C463.27,20.7196514 475.13,31.1796514 475.13,51.6296514 C475.13,63.0196514 471.41,72.5496514 465.37,79.7596514 C453.52,77.6696514 440.03,76.9696514 425.39,77.6696514 C425.39,59.3096514 425.39,46.0596514 425.85,30.0196514 M452.82,173.659651 C491.41,173.659651 514.42,151.109651 514.42,124.849651 C514.42,104.159651 501.87,90.9096514 481.18,83.7096514 C492.8,76.7396514 502.8,63.9496514 502.8,48.6096514 C502.8,23.7396514 482.11,8.39965137 445.85,8.39965137 C430.28,8.39965137 426.56,9.78965137 411.91,9.78965137 C397.26,9.78965137 387.5,8.62965137 381.46,8.62965137 C377.74,8.62965137 375.88,10.7196514 375.88,13.7396514 C375.88,16.2996514 377.27,18.3896514 382.16,19.3196514 C394.71,21.1796514 397.73,23.7396514 397.73,30.0096514 C397.96,49.7696514 398.19,64.6396514 398.19,90.6796514 C398.19,116.719651 398.19,132.059651 397.73,151.809651 C397.5,158.549651 395.17,160.409651 382.62,161.569651 C377.74,162.269651 376.34,164.589651 376.34,167.149651 C376.34,170.169651 378.2,172.259651 381.92,172.259651 C390.98,172.259651 399.59,171.799651 411.91,171.799651 C423.53,171.799651 434.22,173.659651 452.82,173.659651 M263.84,175.059651 C283.6,175.059651 301.96,169.479651 319.39,158.089651 C324.27,155.069651 325.67,151.809651 325.67,148.559651 C325.67,142.279651 326.13,136.469651 325.9,131.359651 C325.67,127.409651 323.81,125.079651 320.55,125.079651 C317.99,125.079651 316.13,126.709651 315.2,130.189651 C309.16,150.409651 291.03,161.339651 268.01,161.339651 C234.07,161.339651 208.5,133.209651 208.5,90.6796514 C208.5,48.1496514 232.67,19.5496514 268.47,19.5496514 C291.71,19.5496514 305.66,28.1496514 313.33,46.2796514 C314.96,49.9996514 316.35,51.8596514 319.37,51.8596514 C322.62,51.8596514 324.02,49.5396514 324.25,45.8196514 C324.48,40.4696514 324.48,32.1096514 324.48,26.9896514 C324.48,23.4996514 323.32,20.7096514 318.2,17.9296514 C305.88,11.1896514 288.68,6.30965137 270.32,6.30965137 C215.93,6.30965137 178.74,43.7296514 178.74,93.2496514 C178.74,142.769651 213.61,175.069651 263.82,175.069651 M87.19,175.059651 C127.4,175.059651 153.9,150.189651 153.9,106.259651 L153.9,90.6896514 C153.9,64.4196514 153.9,49.0796514 154.13,27.9296514 C154.36,23.0496514 156.69,20.9596514 169.47,19.7896514 C173.89,19.0896514 175.28,16.7696514 175.28,14.2096514 C175.28,11.1896514 173.42,9.09965137 169.93,9.09965137 C162.49,9.09965137 155.29,9.79965137 145.99,9.79965137 C136.69,9.79965137 129.02,9.09965137 121.35,9.09965137 C117.86,9.09965137 116,11.1896514 116,14.2096514 C116,16.5296514 117.39,18.8596514 122.04,19.5596514 C135.52,20.9496514 137.85,23.0496514 137.85,27.9296514 C138.31,49.0796514 138.31,64.4196514 138.31,90.6896514 L138.31,104.399651 C138.31,138.799651 121.34,156.239651 92.98,156.239651 C64.62,156.239651 48.82,138.109651 48.82,106.029651 L48.82,90.6896514 C48.82,64.4196514 48.82,49.0796514 49.28,27.9296514 C49.28,23.0496514 51.6,20.9596514 64.39,19.7896514 C69.04,19.0896514 70.43,16.7696514 70.43,14.2096514 C70.43,11.1896514 68.57,9.09965137 64.85,9.09965137 C56.02,9.09965137 47.18,9.79965137 35.1,9.79965137 C23.02,9.79965137 14.41,9.09965137 5.35,9.09965137 C1.86,9.09965137 0,11.1896514 0,14.2096514 C0,16.7696514 1.39,19.0896514 6.04,19.7896514 C18.82,20.9496514 21.15,23.0396514 21.15,27.9296514 C21.61,49.0796514 21.61,64.4196514 21.61,90.6896514 L21.61,109.049651 C21.61,152.519651 46.71,175.059651 87.16,175.059651" transform="translate(.98 -.01)"/></svg>